<svg width="584" height="653" viewBox="0 0 584 653" fill="none" xmlns="http://www.w3.org/2000/svg">
<path opacity="0.1" d="M164.32 273.01H136.43V300.9H164.32V273.01Z" fill="#6C63FF"/>
<path opacity="0.1" d="M164.32 337.81H136.43V365.7H164.32V337.81Z" fill="#6C63FF"/>
<path opacity="0.1" d="M164.32 402.6H136.43V430.49H164.32V402.6Z" fill="#6C63FF"/>
<path opacity="0.1" d="M164.32 467.4H136.43V495.29H164.32V467.4Z" fill="#6C63FF"/>
<path opacity="0.1" d="M164.32 532.2H136.43V560.09H164.32V532.2Z" fill="#6C63FF"/>
<path opacity="0.1" d="M164.32 596.99H136.43V624.88H164.32V596.99Z" fill="#6C63FF"/>
<path opacity="0.1" d="M72.04 629.46C72.94 629.97 73.85 630.46 74.77 630.95V630.46H82.6V634.88L84.27 635.64V630.46H92.1V638.95L93.77 639.59V630.46H102.1V642.46L103.77 642.98V629.46H72.04Z" fill="#6C63FF"/>
<path opacity="0.1" d="M270.51 458.07C270.51 458.07 262.36 480.52 279.18 482.57C279.951 482.949 280.822 483.074 281.669 482.927C282.515 482.779 283.293 482.367 283.89 481.75C283.89 481.75 282.72 481.36 283.8 479.18C284.184 478.401 284.473 477.578 284.66 476.73C284.918 475.585 284.792 474.386 284.3 473.32C284.3 473.32 283.55 466.11 273.79 460.51C273.79 460.51 272.05 457.98 271.44 457.88L271.94 462.22C271.94 462.22 275.12 461.73 277.12 463.45C277.12 463.45 272.12 462.1 271.99 462.87C271.99 463.03 272.36 465.16 272.36 465.16C272.36 465.16 277.88 464.33 280.89 467.08C280.89 467.08 275.11 464.67 272.5 465.97L273.28 469.16C273.28 469.16 279.07 467.99 282.62 471C282.62 471 276.5 468.68 273.5 469.84L274.69 472.84C274.69 472.84 280.36 471.84 283.3 474.33C283.3 474.33 275.95 472.33 275.01 473.52C275.522 474.684 276.174 475.782 276.95 476.79C276.95 476.79 281.04 476.14 282.62 477.79C282.62 477.79 277.56 477 277.38 477.53C277.38 477.53 279.97 480.62 282.11 481.53C280.1 480.825 278.31 479.604 276.92 477.99C276.788 479.294 277.042 480.609 277.65 481.77C277.65 481.77 275.47 480.77 276.3 477.23C276.3 477.23 274.39 474.73 274.38 474.23C274.38 474.23 273.06 477.61 273.38 479.98C273.38 479.98 271.78 477.5 274.04 473.44L272.78 470.44C272.78 470.44 270.78 474.81 270.93 476.94C270.93 476.94 269.69 474.16 272.53 469.65L271.73 466.54C270.682 468.428 269.885 470.445 269.36 472.54C269.36 472.54 268.76 469.7 271.53 465.6L271.24 463.45C271.24 463.45 269.84 466.13 269.51 466.94C269.18 467.75 268.93 467.72 268.93 467.72C269.161 465.827 269.916 464.037 271.11 462.55C271.11 462.55 270.78 458.07 270.51 458.07Z" fill="#6C63FF"/>
<path opacity="0.1" d="M238.17 246.48C238.17 246.48 230.03 268.92 246.84 270.97C247.612 271.348 248.484 271.473 249.331 271.328C250.178 271.183 250.958 270.774 251.56 270.16C251.56 270.16 250.38 269.77 251.47 267.58C251.847 266.799 252.132 265.977 252.32 265.13C252.576 263.989 252.453 262.795 251.97 261.73C251.97 261.73 251.22 254.52 241.45 248.91C241.45 248.91 239.71 246.38 239.1 246.28L239.61 250.63C239.61 250.63 242.78 250.13 244.78 251.85C244.78 251.85 239.78 250.5 239.65 251.28C239.65 251.43 240.02 253.57 240.02 253.57C240.02 253.57 245.54 252.73 248.56 255.49C248.56 255.49 242.78 253.07 240.16 254.38L240.94 257.56C240.94 257.56 246.73 256.39 250.29 259.4C250.29 259.4 244.16 257.08 241.16 258.25L242.35 261.25C242.35 261.25 248.02 260.25 250.96 262.75C250.96 262.75 243.61 260.75 242.67 261.93C243.182 263.094 243.834 264.192 244.61 265.2C244.61 265.2 248.7 264.56 250.28 266.2C250.28 266.2 245.23 265.41 245.05 265.93C245.05 265.93 247.63 269.03 249.77 269.93C247.762 269.216 245.973 267.993 244.58 266.38C244.447 267.688 244.701 269.005 245.31 270.17C245.31 270.17 243.13 269.17 243.97 265.62C243.97 265.62 242.05 263.13 242.04 262.62C242.04 262.62 240.73 265.99 241.04 268.37C241.04 268.37 239.43 265.88 241.7 261.83L240.43 258.83C240.43 258.83 238.43 263.2 238.58 265.34C238.58 265.34 237.34 262.55 240.18 258.04L239.38 254.93C238.333 256.819 237.537 258.836 237.01 260.93C237.01 260.93 236.42 258.1 239.18 253.99L238.9 251.85C238.9 251.85 237.49 254.53 237.16 255.33C236.83 256.13 236.58 256.12 236.58 256.12C236.811 254.227 237.566 252.437 238.76 250.95C238.76 250.95 238.45 246.48 238.17 246.48Z" fill="#6C63FF"/>
<path opacity="0.1" d="M298.61 368.68C298.61 368.68 304.9 391.68 319.82 383.68C320.668 383.545 321.451 383.146 322.058 382.538C322.666 381.931 323.065 381.148 323.2 380.3C323.2 380.3 322.02 380.66 321.65 378.25C321.509 377.395 321.267 376.559 320.93 375.76C320.487 374.674 319.695 373.767 318.68 373.18C318.68 373.18 313.91 367.72 302.68 368.76C302.68 368.76 299.8 367.71 299.24 367.98L302.16 371.23C302.16 371.23 304.47 369 307.1 369.23C307.1 369.23 302.21 371.03 302.57 371.72C302.65 371.86 304.19 373.38 304.19 373.38C304.19 373.38 308.19 369.51 312.27 370.02C312.27 370.02 306.16 371.38 304.78 373.96L307.25 376.11C307.25 376.11 311.31 371.82 315.95 372.22C315.95 372.22 309.6 373.86 307.82 376.54L310.54 378.33C310.54 378.33 314.54 374.22 318.44 374.59C318.44 374.59 311.3 377.22 311.19 378.7C312.282 379.357 313.451 379.878 314.67 380.25C314.67 380.25 317.67 377.37 319.86 377.78C319.86 377.78 315.27 380.05 315.43 380.58C315.43 380.58 319.33 381.58 321.58 381.1C319.531 381.681 317.366 381.715 315.3 381.2C315.943 382.345 316.91 383.273 318.08 383.87C318.08 383.87 315.72 384.3 314.36 380.93C314.36 380.93 311.36 380 311.04 379.58C311.04 379.58 311.92 383.1 313.54 384.86C313.54 384.86 310.8 383.75 310.31 379.13L307.54 377.4C307.54 377.4 308.45 382.11 309.77 383.78C309.77 383.78 307.15 382.22 306.87 376.9L304.43 374.82C304.668 376.978 305.185 379.096 305.97 381.12C305.97 381.12 303.86 379.12 303.75 374.2L302.28 372.61C302.28 372.61 302.68 375.61 302.87 376.46C303.06 377.31 302.87 377.46 302.87 377.46C301.969 375.78 301.554 373.883 301.67 371.98C301.67 371.98 298.84 368.53 298.61 368.68Z" fill="#6C63FF"/>
<path d="M405.23 620.2C405.23 620.2 457.11 602.73 446.37 540.83L380.47 523.72L365.17 574.51L405.23 620.2Z" fill="#CED7E7"/>
<path d="M147.17 117.21C147.17 117.21 154.17 128.6 163.74 122.91C173.31 117.22 164.13 101.5 164.13 101.5C164.13 101.5 145.8 98.99 147.17 117.21Z" fill="#FED253"/>
<path opacity="0.1" d="M163.74 122.91C162.611 123.64 161.345 124.132 160.019 124.356C158.693 124.58 157.336 124.53 156.03 124.21C152.52 123.32 149.82 120.62 148.37 118.85C147.937 118.331 147.537 117.787 147.17 117.22C146.68 110.72 148.7 106.85 151.5 104.57C155.35 101.44 160.68 101.31 162.98 101.41C163.69 101.41 164.1 101.51 164.1 101.51L164.29 101.83C164.56 102.34 165.15 103.47 165.78 104.98C167.92 109.93 170.47 118.9 163.74 122.91Z" fill="black"/>
<path d="M423.7 537L459.7 539.91L526.7 540.46L473.91 605.46C473.91 605.46 457.16 606.37 453.71 608.73C450.26 611.09 401.82 609.83 401.82 609.83L394 576.51L423.7 537Z" fill="#F3BE97"/>
<path d="M379.41 360.41L387.78 374.61L389.6 399.37C389.6 399.37 395.43 420.48 399.8 426.67C404.17 432.86 405.99 449.25 405.99 449.25C405.99 449.25 407.81 464.54 409.99 467.81C412.17 471.08 415.09 494.81 415.09 494.81C415.09 494.81 434.39 533.4 451.86 538.13C451.86 538.13 365.21 566.53 410.72 617.5C410.72 617.5 378.32 625.5 370.67 616.41C363.02 607.32 343 472.6 343 472.6L349.19 359L379.41 360.41Z" fill="#0B1D40"/>
<path d="M268.79 224.77C266.358 237.384 267.08 250.402 270.89 262.67L257.41 301.26C257.41 301.26 154.74 244.1 163.48 230.26C168.43 222.41 169.06 201.64 168.66 185.14C168.37 172.6 167.48 162.54 167.48 162.54C167.48 162.54 293.48 174.93 276.71 203.69C272.915 210.227 270.238 217.351 268.79 224.77Z" fill="#F3BE97"/>
<path opacity="0.1" d="M276.71 203.69C272.915 210.227 270.238 217.351 268.79 224.77C250.091 230.752 229.898 230.073 211.643 222.848C193.389 215.623 178.2 202.298 168.66 185.14C168.37 172.6 167.48 162.54 167.48 162.54C167.48 162.54 293.45 174.93 276.71 203.69Z" fill="black"/>
<path d="M327.68 141.79C327.689 155.139 324.547 168.301 318.512 180.207C312.476 192.113 303.716 202.427 292.943 210.311C282.171 218.194 269.69 223.424 256.516 225.576C243.342 227.727 229.846 226.74 217.125 222.694C204.405 218.648 192.818 211.658 183.307 202.291C173.797 192.924 166.631 181.445 162.392 168.788C158.153 156.13 156.96 142.65 158.911 129.445C160.862 116.24 165.902 103.681 173.62 92.79C174.82 91.103 176.083 89.457 177.41 87.85C184.969 78.6622 194.376 71.1667 205.02 65.85C210.795 62.9609 216.886 60.7528 223.17 59.27C234.518 56.5817 246.297 56.2572 257.775 58.3165C269.253 60.3759 280.185 64.7752 289.89 71.2406C299.596 77.7061 307.867 86.099 314.189 95.898C320.511 105.698 324.749 116.693 326.64 128.2C327.346 132.695 327.694 137.24 327.68 141.79Z" fill="#F3BE97"/>
<path d="M362.331 492.862C361.061 499.642 362.651 512.032 365.061 524.642C365.161 525.192 365.271 525.742 365.381 526.292C365.491 526.842 365.651 527.692 365.791 528.382C366.901 533.802 368.111 539.172 369.291 544.052C370.471 548.932 371.531 553.112 372.431 556.552C373.791 561.702 374.721 564.942 374.721 564.942C374.721 564.942 374.841 568.122 375.001 573.182C375.091 576.102 375.191 579.662 375.291 583.592C375.291 584.732 375.361 585.892 375.391 587.092C375.441 589.182 375.491 591.352 375.541 593.572C375.541 594.292 375.541 595.012 375.591 595.742C375.591 598.132 375.681 600.572 375.721 603.002C375.771 606.342 375.811 609.682 375.831 612.922C375.831 614.162 375.831 615.382 375.831 616.582C375.831 619.682 375.831 622.652 375.831 625.382C375.721 633.132 375.411 638.982 374.751 640.672C374.521 641.252 374.311 641.882 374.111 642.542C373.244 645.647 372.615 648.812 372.231 652.012L370.531 650.622C367.281 647.942 364.061 645.202 360.791 642.542C355.355 637.99 349.586 633.851 343.531 630.162C343.121 629.922 342.711 629.682 342.291 629.452C341.171 628.802 340.031 628.192 338.871 627.612C336.481 626.408 334.031 625.326 331.531 624.372C319.981 619.972 307.611 618.372 295.071 618.642C290.071 620.552 286.821 621.922 286.821 621.922L280.461 623.842L279.401 624.162C272.511 626.262 262.821 629.242 259.331 630.482C253.691 632.482 204.721 642.672 204.721 642.672C200.247 643.894 195.677 644.73 191.061 645.172C182.655 647.537 174.099 649.328 165.451 650.532C145.798 653.045 125.838 651.437 106.841 645.812C106.274 645.846 105.705 645.829 105.141 645.762C105.491 645.762 105.831 645.682 106.141 645.622L104.921 645.262L103.251 644.742C100.451 643.862 97.674 642.899 94.921 641.852L93.251 641.212C90.584 640.186 87.974 639.082 85.4206 637.902L83.7506 637.142C81.084 635.902 78.474 634.592 75.9206 633.212C75.0006 632.732 74.0906 632.212 73.1906 631.722C70.4706 630.202 67.804 628.609 65.1906 626.942C64.7506 623.172 64.5206 620.652 64.5206 620.652L60.6206 601.232L60.4206 600.232L57.6206 586.232L57.4206 585.232L51.3306 554.772L51.1306 553.772L48.3306 539.772L48.1306 538.772L41.9606 508.332L41.7606 507.332L38.9606 493.332L38.7606 492.332L32.6406 461.832L32.4406 460.832L29.6406 446.882L29.4406 445.882L28.3306 440.382L26.6606 432.052C26.6606 432.052 21.3306 424.432 15.3306 415.422L14.6606 414.422C12.9506 411.892 11.1906 409.262 9.48062 406.682C8.91062 405.832 8.36062 404.992 7.81062 404.162C6.97732 402.902 6.17062 401.672 5.39062 400.472L4.85062 399.642L4.74062 399.472C-3.87935 386.132 1.89062 380.332 1.89062 380.332C1.89062 380.332 5.51062 375.432 10.1806 368.952C10.4106 368.622 10.6506 368.292 10.9006 367.952C12.9006 365.152 15.1006 362.092 17.2606 359.032L18.9306 356.652C19.5606 355.762 20.1806 354.872 20.7806 353.992C21.0206 353.662 21.2506 353.322 21.4706 352.992C26.0806 346.332 29.8806 340.522 30.6606 338.462C31.8806 335.212 39.6606 325.602 47.4106 317.172C53.5206 310.512 59.6006 304.592 62.3306 303.172C68.5206 299.902 71.0706 289.332 71.0706 289.332C71.0706 289.332 84.5406 284.612 86.3606 280.972C88.1806 277.332 113.671 260.972 113.671 260.972C113.671 260.972 123.981 254.332 128.151 250.332C128.741 249.809 129.256 249.207 129.681 248.542C131.131 245.942 140.601 243.802 144.451 243.032C145.451 242.832 146.071 242.722 146.071 242.722C147.625 239.898 149.59 237.32 151.901 235.072C153.471 233.682 155.431 228.892 157.081 224.252C158.871 219.192 160.261 214.322 160.261 214.322C163.181 204.492 169.001 207.402 169.001 207.402C168.993 208.745 169.12 210.085 169.381 211.402C171.811 223.402 185.011 228.402 191.941 234.012C199.591 240.192 211.601 256.222 221.071 259.492C228.911 262.202 238.001 272.422 240.881 275.832L241.101 276.092C241.581 276.652 241.821 276.972 241.821 276.972C241.821 276.972 247.191 276.692 250.461 276.632H251.651C252.316 276.566 252.948 276.309 253.471 275.892C256.721 273.682 261.561 267.202 263.671 265.712C266.211 263.882 268.771 234.392 268.771 234.392L268.901 234.332C277.971 230.082 287.701 272.622 287.701 272.622C287.701 272.622 304.811 277.722 306.271 281.362C306.551 282.082 307.841 283.362 309.781 284.912C318.614 291.663 328.016 297.635 337.881 302.762C338.101 302.872 338.311 302.982 338.531 303.072C338.729 303.179 338.933 303.276 339.141 303.362C339.511 303.542 339.871 303.702 340.211 303.852C340.751 304.092 341.251 304.292 341.711 304.452L342.311 304.662C343.744 305.139 345.094 305.838 346.311 306.732C346.671 306.992 347.031 307.262 347.381 307.552C348.742 308.686 349.995 309.945 351.121 311.312C351.291 311.512 351.451 311.722 351.611 311.922C352.371 312.872 353.051 313.812 353.611 314.682C354.53 316.025 355.368 317.42 356.121 318.862C356.121 318.862 371.041 344.352 375.781 347.252C380.521 350.152 383.431 379.662 383.431 379.662L367.431 438.972C367.431 438.972 366.681 453.972 365.281 469.272C364.501 477.852 363.511 486.582 362.331 492.862Z" fill="#0B1D40"/>
<path d="M241.05 279.94C241.05 279.94 230.32 285.76 221.94 286.31C220.843 286.361 219.744 286.298 218.66 286.12C209.88 284.79 197 277.57 197 277.57L212.11 261L230.49 270.11L237.25 276.4L241.05 279.94Z" fill="#DCDCDC"/>
<path opacity="0.1" d="M326.6 128.2C326.22 128.738 325.788 129.237 325.31 129.69C320.05 134.69 310.71 132.62 303.54 131.46C297.31 130.441 291.223 128.682 285.41 126.22C280.35 124.06 274.28 121.42 269.73 124.52C267.98 125.7 266.78 127.59 264.96 128.63C263.14 129.67 260.82 129.74 258.67 129.77C251.67 129.77 244.67 129.85 237.84 128.27C227.65 125.89 217.11 119.9 207.42 123.85C199.84 126.93 195.73 135.18 193.68 143.11C192.68 147 191.94 151.11 189.68 154.41C187.42 157.71 183.05 160.05 179.33 158.5C173.84 156.21 173.03 146.89 166.41 146.42C159.14 145.91 159.23 153.42 161.35 158.85C164.49 166.85 168.6 174.85 168.78 183.19C160.967 169.196 157.275 153.275 158.131 137.271C158.988 121.266 164.358 105.83 173.62 92.75C175.232 91.752 176.493 90.277 177.23 88.53C177.304 88.294 177.364 88.053 177.41 87.81C177.96 85.02 176.41 82.09 176.32 79.17C175.97 72.04 183.69 67.07 190.77 66.17C195.48 65.57 200.3 66.03 205.02 65.88C207.397 65.8276 209.762 65.5124 212.07 64.94C216.052 63.7468 219.781 61.8316 223.07 59.29C234.418 56.6017 246.197 56.2772 257.675 58.3366C269.153 60.3959 280.085 64.7952 289.79 71.2606C299.496 77.7261 307.767 86.119 314.089 95.918C320.411 105.718 324.649 116.713 326.54 128.22L326.6 128.2Z" fill="black"/>
<path d="M328.31 122.31C327.812 124.288 326.773 126.088 325.31 127.51C320.05 132.51 310.71 130.43 303.54 129.27C297.309 128.274 291.222 126.528 285.41 124.07C280.35 121.92 274.28 119.28 269.73 122.38C267.98 123.56 266.78 125.45 264.96 126.49C263.14 127.53 260.82 127.6 258.67 127.62C251.67 127.67 244.67 127.71 237.84 126.13C227.65 123.74 217.11 117.76 207.42 121.7C199.84 124.78 195.73 133.04 193.68 140.97C192.68 144.86 191.94 148.97 189.68 152.26C187.42 155.55 183.05 157.91 179.33 156.36C173.84 154.07 173.03 144.75 166.41 144.28C159.14 143.77 159.23 151.28 161.35 156.71C165.07 166.18 170.13 175.6 168.47 185.64C166.82 185.64 164.09 185.58 162.47 185.54C163.73 183.39 161.33 180.83 158.94 180.1C156.55 179.37 153.76 179.38 151.94 177.64C150.12 175.9 150.11 173.21 150.3 170.8C150.715 165.649 151.975 160.601 154.03 155.86C155.34 152.86 157.03 149.61 156.03 146.47C155.43 145.047 154.707 143.678 153.87 142.38C151.79 138.38 152.28 133.38 154.06 129.25C154.82 127.49 155.37 125.83 156 124.25C156.796 122.004 157.947 119.901 159.41 118.02C161.7 115.17 163.94 110.88 161.41 108.23C160.77 107.56 162.05 107.1 161.64 106.23C161.568 106.081 161.517 105.923 161.49 105.76C161.372 104.707 161.627 103.645 162.21 102.76C162.328 102.53 162.458 102.306 162.6 102.09C162.715 101.861 162.845 101.641 162.99 101.43C165.204 97.733 168.147 94.525 171.64 92C173.81 90.43 176.35 88.92 177.21 86.38C178.21 83.38 176.45 80.19 176.3 77.02C175.95 69.89 183.67 64.92 190.75 64.02C197.83 63.12 205.17 64.61 212.07 62.78C221.86 60.2 228.74 51.56 237.63 46.71C242.493 44.1096 247.887 42.655 253.398 42.4575C258.909 42.2599 264.393 43.3245 269.43 45.57C279.81 50.31 287.64 59.89 298.48 63.49C302.32 64.77 306.48 65.28 309.94 67.4C313.94 69.86 316.37 74.16 318.45 78.4C321.62 84.83 322.26 91.29 324.45 98.1C326.19 103.5 328.6 110.56 328.8 116.78C328.912 118.637 328.747 120.501 328.31 122.31Z" fill="#6C4A4A"/>
<g opacity="0.1">
<path opacity="0.1" d="M162.71 109.78C162.87 109.14 162.886 108.472 162.756 107.826C162.626 107.179 162.354 106.569 161.96 106.04C162.22 106.82 161.09 107.27 161.71 107.92C162.204 108.439 162.549 109.082 162.71 109.78Z" fill="black"/>
<path opacity="0.1" d="M161.93 103.75C161.812 104.099 161.742 104.462 161.72 104.83C161.91 104.51 162.17 104.18 161.93 103.75Z" fill="black"/>
<path opacity="0.1" d="M325.59 125.07C320.32 130.07 310.99 128 303.8 126.83C297.574 125.828 291.492 124.071 285.69 121.6C280.62 119.44 274.56 116.8 270 119.9C268.26 121.08 267.06 122.97 265.23 124.01C263.4 125.05 261.09 125.12 258.94 125.14C251.94 125.14 244.94 125.23 238.1 123.64C227.92 121.26 217.38 115.29 207.69 119.22C200.11 122.31 196 130.56 193.95 138.49C192.95 142.38 192.22 146.49 189.95 149.79C187.68 153.09 183.31 155.43 179.6 153.89C174.11 151.59 173.3 142.28 166.68 141.81C161.51 141.44 160.07 145.14 160.42 149.25C160.72 146.11 162.42 143.69 166.68 143.99C173.3 144.46 174.11 153.78 179.6 156.07C183.31 157.62 187.69 155.29 189.95 151.97C192.21 148.65 192.95 144.56 193.95 140.68C196 132.75 200.11 124.49 207.69 121.41C217.38 117.47 227.92 123.41 238.1 125.83C244.9 127.42 251.96 127.37 258.94 127.32C261.09 127.32 263.36 127.26 265.23 126.2C267.1 125.14 268.23 123.27 270 122.08C274.56 118.99 280.62 121.63 285.69 123.78C291.493 126.25 297.574 128.009 303.8 129.02C310.99 130.18 320.32 132.27 325.59 127.25C328.45 124.52 329.31 120.57 329.12 116.25C328.96 119.68 327.96 122.79 325.59 125.07Z" fill="black"/>
<path opacity="0.1" d="M176.65 75.21C176.595 75.708 176.575 76.2092 176.59 76.71C176.69 78.79 177.48 80.87 177.73 82.9C178.1 80.41 176.95 77.81 176.65 75.21Z" fill="black"/>
<path opacity="0.1" d="M156.33 146.16C156.412 146.459 156.476 146.763 156.52 147.07C156.682 146.038 156.617 144.984 156.33 143.98C155.734 142.552 155.011 141.179 154.17 139.88C153.419 138.401 152.973 136.785 152.86 135.13C152.657 137.519 153.11 139.919 154.17 142.07C155.013 143.365 155.736 144.734 156.33 146.16Z" fill="black"/>
<path opacity="0.1" d="M168.74 183.14L162.89 183.05C163.026 183.403 163.081 183.783 163.05 184.161C163.019 184.538 162.903 184.904 162.71 185.23C164.36 185.23 167.1 185.29 168.71 185.33C168.99 183.618 169.087 181.882 169 180.15C168.977 181.151 168.89 182.15 168.74 183.14Z" fill="black"/>
<path opacity="0.1" d="M159.17 177.61C156.78 176.89 154 176.88 152.22 175.13C151.172 173.984 150.581 172.493 150.56 170.94C150.41 173.24 150.56 175.72 152.22 177.32C154 179.07 156.78 179.08 159.17 179.8C159.948 180.026 160.671 180.409 161.295 180.925C161.919 181.441 162.431 182.079 162.8 182.8C163.81 180.73 161.49 178.3 159.17 177.61Z" fill="black"/>
</g>
<path opacity="0.1" d="M341.1 627.19C339.98 626.54 338.84 625.93 337.68 625.35C335.29 624.145 332.84 623.064 330.34 622.11C318.79 617.71 306.42 616.11 293.88 616.38C288.88 618.29 285.63 619.66 285.63 619.66L279.27 621.58L278.21 621.9C278.14 621.2 278.06 620.5 277.99 619.79C277.92 619.08 277.84 618.4 277.76 617.7C275.52 596.49 273.76 574.7 273.76 574.7V555.88V553.69L273.64 498.24L272.64 479.96L272.17 471.87L272.08 470.33L271.9 467.17L271.8 465.29C271.579 464.694 271.392 464.087 271.24 463.47C271.17 463.22 271.1 462.94 271.04 462.65C270.79 461.65 270.52 460.36 270.24 458.96C268.41 449.76 266.12 434.25 265.98 431.1C265.8 426.9 262.16 401.78 262.16 401.78C261.79 387.95 250.16 361.91 247.23 357C244.3 352.09 241.03 322.59 242.13 321C242.7 320.15 243.07 315.12 243.3 310.48C243.3 309.95 243.35 309.43 243.37 308.92C243.52 305.29 243.59 302.26 243.59 302.26L255.03 300L258.1 299.4L258.34 299.35L258.44 299.55C258.77 300.16 259.8 302.11 261.01 304.67C261.15 304.94 261.28 305.23 261.42 305.52C261.48 305.66 261.55 305.8 261.62 305.94C263.86 310.84 266.45 317.29 266.34 321C266.16 327.56 273.63 343.4 273.63 343.4C274.35 347.04 290.19 383.26 290.19 383.26C290.19 383.26 303.12 418.76 302.39 424.59C301.66 430.42 308.58 469.01 308.58 469.01L315.68 508.7C319.13 516.52 323.68 534.54 323.68 534.54L325.41 544.76L325.74 546.71L330.35 573.98L332.61 587.34C332.61 587.34 333.56 594.44 335 602.34C335.12 603.05 335.26 603.77 335.4 604.49C336.287 609.69 337.547 614.82 339.17 619.84C339.975 622.245 340.619 624.7 341.1 627.19Z" fill="black"/>
<path d="M342.34 627.9C341.93 627.66 341.52 627.42 341.1 627.19C339.98 626.54 338.84 625.93 337.68 625.35C335.29 624.145 332.84 623.064 330.34 622.11C318.79 617.71 306.42 616.11 293.88 616.38C288.88 618.29 285.63 619.66 285.63 619.66L279.27 621.58C279.19 620.88 279.12 620.18 279.04 619.47C278.96 618.76 278.9 618.19 278.84 617.55C276.6 596.39 274.84 574.7 274.84 574.7V555.7V553.51L274.72 498.2L273.72 480.74L273.52 477.12L273.38 474.67L273.2 471.43L273.02 468.14L272.89 465.77V465.25C272.89 465.2 272.89 465.14 272.82 465.08C272.63 464.54 272.4 463.72 272.15 462.68L272.03 462.18C271.98 461.95 271.92 461.7 271.87 461.45C269.99 452.92 267.23 434.53 267.08 431.08C266.9 426.88 263.26 401.76 263.26 401.76C262.89 387.93 251.26 361.89 248.33 356.98C245.4 352.07 242.14 322.57 243.23 320.98C243.86 319.98 244.23 313.91 244.47 308.9C244.47 308.5 244.47 308.11 244.47 307.74C244.6 304.65 244.65 302.24 244.65 302.24L255.29 300.14L257.99 299.61L258.41 299.53L259.41 299.33C259.41 299.33 260.72 301.75 262.29 305.08L262.49 305.5C264.78 310.44 267.49 317.16 267.41 320.98C267.23 327.54 274.7 343.38 274.7 343.38C275.42 347.02 291.26 383.24 291.26 383.24C291.26 383.24 304.19 418.74 303.46 424.57C302.73 430.4 309.65 468.99 309.65 468.99L316.75 508.68C320.2 516.5 324.75 534.52 324.75 534.52L326.36 544.04L326.69 545.97L330.32 567.49L333.67 587.32C333.67 587.32 334.67 594.39 336.05 602.32C336.18 603.04 336.31 603.76 336.45 604.49C337.336 609.714 338.596 614.867 340.22 619.91C341.107 622.522 341.815 625.192 342.34 627.9Z" fill="#DCDCDC"/>
<path d="M333.32 114.31C333.32 114.31 329.5 119.23 326.05 119.23C322.6 119.23 309.17 118.68 302.17 116.5C295.17 114.32 260.85 112.67 260.85 112.67C260.85 112.67 212.25 112.85 210.61 111.21C208.97 109.57 180.39 100.83 177.48 101.38C176.87 101.5 175.38 101.76 173.39 102.09L171.11 102.46C167.66 103.01 163.35 103.65 159.41 104.12C154.54 104.69 150.26 104.98 148.9 104.48V100.29C148.9 100.29 154.54 92.09 154.9 89.74C155.26 87.39 160 53.32 172.38 41.13C177.494 31.3531 185.771 23.598 195.86 19.13C212.61 11.84 229.36 5.65997 229.36 5.65997L232.29 5.23997L241.74 3.83997C242.027 3.55397 242.338 3.29307 242.67 3.05997C245.29 1.05997 253.23 -3.29003 263.58 6.05997L265.41 8.97997C265.41 8.97997 297.26 16.44 312 42.47C326.74 68.5 327.48 93.99 328.57 105.64C328.57 105.64 327.84 108.92 329.3 110.19C329.829 110.657 330.333 111.151 330.81 111.67C330.94 111.8 331.07 111.93 331.19 112.07C331.61 112.49 332 112.93 332.32 113.29C332.358 113.318 332.392 113.352 332.42 113.39C332.498 113.485 332.582 113.575 332.67 113.66L333.32 114.31Z" fill="#FFCC37"/>
<path opacity="0.05" d="M334.58 110.637C334.58 110.637 330.76 115.557 327.31 115.557C323.86 115.557 310.43 115.007 303.43 112.827C296.43 110.647 262.11 108.997 262.11 108.997C262.11 108.997 213.51 109.177 211.87 107.537C210.23 105.897 181.65 97.157 178.74 97.707C178.13 97.827 176.64 98.087 174.65 98.417L174.13 95.217L174 94.427C174 94.427 229.16 82.5974 265.93 88.797C302.7 94.997 329.83 101.897 329.83 101.897C329.83 101.897 329.1 105.177 330.56 106.447C331.089 106.914 331.593 107.408 332.07 107.927C332.2 108.057 332.33 108.187 332.45 108.327C332.87 108.747 333.26 109.187 333.58 109.547C333.618 109.575 333.652 109.609 333.68 109.647C333.758 109.742 333.842 109.832 333.93 109.917L334.58 110.637Z" fill="black"/>
<path opacity="0.1" d="M328.31 122.31C321.5 122.84 308.95 121.18 303.46 120.37C301.9 120.14 300.37 119.86 298.83 119.52C292.94 118.24 274.83 114.65 263.83 116.31C250.54 118.31 213.04 114.67 213.04 114.67C213.04 114.67 189.92 109.94 180.63 106.12C177.22 104.71 171.52 104.27 165.85 104.97C164.404 105.15 162.969 105.407 161.55 105.74C153.81 107.57 147.28 111.74 148.41 118.85C147.977 118.331 147.577 117.787 147.21 117.22C146.72 110.72 148.74 106.85 151.54 104.57L152.2 104.3C155.62 103.328 159.101 102.583 162.62 102.07C163.17 101.98 163.74 101.9 164.32 101.83C174.27 100.49 188.66 100.19 200.8 106.3C200.8 106.3 212.08 111.59 219.73 111.59C227.38 111.59 289.63 112.14 304.2 116.32C307.101 117.158 310.058 117.783 313.05 118.19C318.362 118.875 323.76 118.366 328.85 116.7C328.954 118.587 328.772 120.478 328.31 122.31Z" fill="black"/>
<path opacity="0.1" d="M333.32 114.31C333.32 114.31 329.5 119.23 326.05 119.23C322.6 119.23 309.17 118.68 302.17 116.5C295.17 114.32 260.85 112.67 260.85 112.67C260.85 112.67 212.25 112.85 210.61 111.21C208.97 109.57 180.39 100.83 177.48 101.38C176.87 101.5 175.38 101.76 173.39 102.09L171.11 102.46C167.15 102.44 163.208 102.999 159.41 104.12C154.54 104.69 150.26 104.98 148.9 104.48V103.65C149.949 103.042 151.042 102.513 152.17 102.07C158.918 100.18 165.867 99.099 172.87 98.85C181.6 98.53 191.81 99.55 200.78 104.07C200.78 104.07 212.06 109.36 219.71 109.36C227.36 109.36 289.61 109.9 304.18 114.09C307.082 114.92 310.039 115.542 313.03 115.95C319.592 116.777 326.256 115.82 332.32 113.18C332.358 113.208 332.392 113.242 332.42 113.28C332.498 113.375 332.582 113.465 332.67 113.55L333.32 114.31Z" fill="black"/>
<path d="M148.55 118.68C148.55 118.68 136.35 109.39 152.19 103.2C152.19 103.2 179.86 94.65 200.8 105.2C200.8 105.2 212.08 110.47 219.73 110.47C227.38 110.47 289.63 111.02 304.2 115.21C307.102 116.041 310.059 116.663 313.05 117.07C320.802 118.01 328.654 116.518 335.52 112.8C336.52 112.25 337.42 111.97 337.69 112.29C338.6 113.39 337.88 119.76 329.87 121.03C323.62 122.03 309.42 120.14 303.45 119.27C301.9 119.04 300.36 118.75 298.83 118.42C292.94 117.14 274.83 113.55 263.78 115.21C250.5 117.21 212.99 113.57 212.99 113.57C212.99 113.57 189.88 108.84 180.59 105.01C171.3 101.18 145.09 104.48 148.55 118.68Z" fill="#FED253"/>
<path opacity="0.1" d="M251.4 21.07C250.4 19.63 237.55 9.34 232.31 5.18L241.76 3.78C242.047 3.494 242.358 3.2331 242.69 3C249.56 10.21 251.4 21.07 251.4 21.07Z" fill="black"/>
<path opacity="0.1" d="M132.35 273.07C133.44 274.89 169.3 322.07 178.77 320.76C188.24 319.45 132.35 273.07 132.35 273.07Z" fill="black"/>
<path opacity="0.1" d="M252.5 316.19C252.5 316.19 261.24 324.57 259.96 327.84C258.68 331.11 252.5 316.19 252.5 316.19Z" fill="black"/>
<path opacity="0.1" d="M157.11 373.72C157.11 373.72 149.46 409.58 153.47 410.72C157.48 411.86 157.11 373.72 157.11 373.72Z" fill="black"/>
<path opacity="0.1" d="M255.41 512.98C256.68 516.62 267.24 540.29 269.61 541.56C271.98 542.83 255.41 512.98 255.41 512.98Z" fill="black"/>
<path opacity="0.1" d="M378.11 415.77C377.74 417.04 368.64 424.51 370.64 427.24C372.64 429.97 378.11 415.77 378.11 415.77Z" fill="black"/>
<path opacity="0.1" d="M307.47 482.21C307.29 483.13 305.47 502.21 308.93 505.88C312.39 509.55 307.47 482.21 307.47 482.21Z" fill="black"/>
<path opacity="0.1" d="M400.75 581.33C398.11 582.8 395.38 584.22 392.6 585.58C389.6 587.04 386.6 588.43 383.54 589.74C382.32 590.27 381.1 590.79 379.89 591.29C378.05 592.05 376.23 592.78 374.43 593.48C368.96 595.62 363.69 597.48 359 599.05C357.18 599.66 355.44 600.22 353.82 600.74C345.66 603.33 340.24 604.74 340.24 604.74C339.002 604.475 337.735 604.371 336.47 604.43C336.12 604.43 335.76 604.43 335.39 604.43C333.696 604.553 332.011 604.766 330.34 605.07C319.17 607.07 303.39 612.68 293.88 616.35C288.88 618.26 285.63 619.63 285.63 619.63L279.27 621.55L278.21 621.87C271.32 623.97 261.63 626.95 258.14 628.19C252.5 630.19 203.53 640.38 203.53 640.38C199.056 641.601 194.486 642.438 189.87 642.88C178.495 643.924 167.061 644.184 155.65 643.66C144.19 644.4 125.65 641.88 114.86 640.18L113.14 639.91C108.97 639.23 106.32 638.74 106.32 638.74L107.72 636.81L136.43 597.2L136.6 596.96L163.35 560.07L164.35 558.73L166.78 555.38C166.78 555.38 168.24 553.38 173.86 553.25C174.52 553.25 175.24 553.25 176.03 553.25C180.751 553.629 185.408 554.58 189.9 556.08L191.2 556.47C210.57 562.02 240.51 560.63 240.51 560.63C240.51 560.63 259.14 557.63 273.78 555.83L274.87 555.69C279.654 555.014 284.471 554.597 289.3 554.44C298.22 554.62 317.52 549.89 317.52 549.89C321.67 549 323.42 548.25 325.76 546.58C326.07 546.36 326.4 546.12 326.76 545.86C327.76 545.11 328.91 544.19 330.39 543.05C333.09 540.98 336.88 538.17 342.84 534.23C343.36 533.89 343.91 533.55 344.5 533.23C345.09 532.91 345.84 532.48 346.56 532.12C352.332 529.387 358.417 527.371 364.68 526.12C369.875 525.003 375.146 524.278 380.45 523.95H381.24C396.24 523.15 411.56 525.72 420.52 534.15C422.087 535.631 423.452 537.313 424.58 539.15C425.128 540.023 425.615 540.931 426.04 541.87C426.857 543.661 427.465 545.54 427.85 547.47C427.923 547.83 427.983 548.19 428.03 548.55C428.03 548.66 428.03 548.76 428.03 548.87C428.03 549.16 428.09 549.45 428.11 549.74C428.91 561.71 416.49 572.53 400.75 581.33Z" fill="black"/>
<path d="M106.32 636.59C106.32 636.59 138.72 642.59 155.65 641.5C155.65 641.5 186.78 643.14 203.53 638.23C203.53 638.23 252.53 628.03 258.14 626.03C263.75 624.03 285.63 617.47 285.63 617.47C285.63 617.47 328.23 599.63 340.24 602.54C340.24 602.54 434.54 578.15 427.8 545.2C421.06 512.25 361.54 519.72 342.8 532.09C324.06 544.46 326.8 545.75 317.5 547.75C317.5 547.75 298.2 552.48 289.28 552.3C280.36 552.12 240.49 558.49 240.49 558.49C240.49 558.49 209.18 559.95 189.89 553.94C170.6 547.93 166.77 553.21 166.77 553.21L106.32 636.59Z" fill="#F3BE97"/>
<path opacity="0.1" d="M176.58 551.07C176.585 551.11 176.585 551.15 176.58 551.19C176.51 551.933 176.318 552.66 176.01 553.34C172.17 562.76 150.37 588.17 150.37 588.17C149.376 591.189 148.177 594.135 146.78 596.99C143.776 603.092 140.316 608.959 136.43 614.54C130.669 622.89 124.38 630.863 117.6 638.41H117.55C116.687 639.05 115.789 639.641 114.86 640.18C112.51 641.58 108.98 643.31 105.65 643.52C105.083 643.554 104.514 643.537 103.95 643.47C104.3 643.47 104.64 643.39 104.95 643.33L103.73 642.97L102.06 642.45C99.26 641.57 96.483 640.607 93.73 639.56L92.06 638.92C89.3933 637.893 86.7833 636.79 84.23 635.61L82.56 634.85C79.8933 633.61 77.2833 632.3 74.73 630.92C73.81 630.44 72.9 629.92 72 629.43C69.28 627.91 66.6133 626.317 64 624.65C61.2267 622.883 58.5133 621.04 55.86 619.12C53.86 615.41 52.21 612.12 51.31 610.35C49.67 607.06 49.53 602.35 49.73 598.94C49.73 598.59 49.73 598.26 49.79 597.94C49.96 595.8 50.22 594.33 50.22 594.33C48.7382 592.349 47.4014 590.264 46.22 588.09C45.5413 587.011 45.1552 585.774 45.1 584.5C45.1452 583.989 45.0978 583.474 44.96 582.98C44.19 579.82 40.88 574.39 37.82 570.98C35.54 568.47 35.4 559.09 35.62 552.44C35.75 548.44 36 545.5 36 545.5C35.5519 545.211 35.2166 544.777 35.05 544.27C34.2459 542.081 33.7022 539.806 33.43 537.49C33.43 537.16 33.34 536.83 33.29 536.49C32.65 531.9 32.36 527.29 32.36 527.29C24.96 521.9 21.44 513.49 19.8 505.99L19.59 504.99C18.6893 500.38 18.307 495.685 18.45 490.99C18.45 490.54 18.45 490.2 18.45 489.99C18.45 489.78 18.45 489.74 18.45 489.74C18.45 489.74 19.43 468.07 22.17 459.61C22.28 459.25 22.4 458.92 22.52 458.61C22.7219 458.079 22.9836 457.572 23.3 457.1C24.3 455.77 25.01 453.26 25.6 450.29C26.01 448.23 26.35 445.94 26.6 443.66C26.83 441.76 27.01 439.87 27.15 438.12C27.54 433.44 27.66 429.79 27.66 429.79L25.81 420.67C25.3 418.18 24.91 415.67 24.64 413.16C24.64 412.83 24.56 412.5 24.52 412.16C24.0523 407.525 23.9687 402.859 24.27 398.21C24.27 397.87 24.27 397.54 24.33 397.21C25.1108 386.621 27.8791 376.274 32.49 366.71L32.99 365.71C33.6567 364.377 34.3567 363.067 35.09 361.78C35.62 360.83 36.18 359.89 36.76 358.96C38.2976 356.47 39.9666 354.063 41.76 351.75C42.02 351.41 42.29 351.08 42.56 350.75C45.6804 346.881 49.1482 343.307 52.92 340.07C63.02 331.39 72.29 327.62 80.71 327.33C117.53 326.03 138.18 391.15 141.52 402.56C141.84 403.66 142 404.26 142 404.26C142 404.26 156.92 419.19 152.55 425.74C151.703 427.182 151.187 428.794 151.04 430.46C149.84 439.27 153.28 453.78 153.28 453.78C153.28 453.78 154.5 457.78 158.06 467.36L159.11 470.16C161.34 476.16 161.86 486.23 160.58 495.25C159.35 503.89 156.46 511.53 151.83 513.49C142.36 517.49 144.91 521.49 147.09 524.78C148.385 527.138 149.466 529.608 150.32 532.16C151.69 535.85 152.96 539.73 153.44 541.24C153.58 541.66 153.65 541.89 153.65 541.89C154.976 541.377 156.354 541.008 157.76 540.79C159.55 540.54 161.32 540.72 161.66 542.25C161.84 543.07 162.87 544.04 164.32 545.01C168.62 547.97 176.58 551.07 176.58 551.07Z" fill="black"/>
<path d="M174.4 551.07C174.339 551.831 174.146 552.575 173.83 553.27C170.01 562.7 148.19 588.17 148.19 588.17C147.192 591.187 145.992 594.134 144.6 596.99C142.187 601.918 139.458 606.684 136.43 611.26C130.161 620.716 123.216 629.706 115.65 638.16L115.42 638.41C115.42 638.41 114.54 639.08 113.14 639.94C110.638 641.537 107.882 642.693 104.99 643.36L103.77 643L102.1 642.48C99.3 641.6 96.523 640.637 93.77 639.59L92.1 638.95C89.4333 637.923 86.8233 636.82 84.27 635.64L82.6 634.88C79.9333 633.64 77.3233 632.33 74.77 630.95C73.85 630.47 72.94 629.95 72.04 629.46C69.32 627.94 66.6533 626.347 64.04 624.68C61.2666 622.913 58.5533 621.07 55.9 619.15C54.6733 618.27 53.46 617.367 52.26 616.44C50.91 613.88 49.83 611.72 49.16 610.38C47.52 607.09 47.38 602.38 47.58 598.97C47.58 598.62 47.58 598.29 47.64 597.97C47.81 595.83 48.07 594.36 48.07 594.36C48.07 594.36 47.26 593.27 46.28 591.79C45.73 590.97 45.14 590.02 44.61 589.08C43.61 587.32 42.83 585.54 42.98 584.53C43.0003 584.357 43.0003 584.183 42.98 584.01C42.965 583.672 42.9147 583.337 42.83 583.01C42.06 579.85 38.74 574.42 35.68 571.01C33.4 568.5 33.26 559.12 33.47 552.47C33.47 552.13 33.47 551.8 33.47 551.47C33.61 548.02 33.82 545.53 33.82 545.53C32.69 545.04 31.82 541.41 31.26 537.53L31.11 536.53C30.47 531.94 30.18 527.33 30.18 527.33C22.78 521.94 19.26 513.53 17.63 506.03C16.4944 500.777 16.0573 495.397 16.33 490.03C16.33 489.87 16.33 489.78 16.33 489.78C16.33 489.78 17.19 468 19.93 459.53C20.04 459.17 20.16 458.84 20.28 458.53C20.5199 458.011 20.8186 457.521 21.17 457.07C22.69 454.95 23.7 449.85 24.36 444.63L24.48 443.63C25.31 436.63 25.54 429.76 25.54 429.76L23.68 420.64C23.1733 418.14 22.7833 415.637 22.51 413.13C22.46 412.8 22.43 412.46 22.39 412.13C21.9224 407.495 21.8388 402.829 22.14 398.18C22.14 397.84 22.14 397.51 22.21 397.18C22.9861 386.59 25.7545 376.242 30.37 366.68C30.53 366.34 30.69 366.01 30.87 365.68C32.1557 363.083 33.5846 360.559 35.15 358.12C35.69 357.27 36.24 356.43 36.82 355.6C37.73 354.28 38.68 352.98 39.67 351.72L40.47 350.72C43.5637 346.866 47.0011 343.302 50.74 340.07C61.74 330.64 71.74 327 80.74 327.33C116.19 328.6 136.09 391.38 139.36 402.56C139.68 403.66 139.84 404.26 139.84 404.26C139.84 404.26 154.77 419.19 150.4 425.74C149.553 427.182 149.037 428.794 148.89 430.46C147.68 439.27 151.13 453.78 151.13 453.78C151.13 453.78 152.35 457.78 155.91 467.36C156.23 468.25 156.58 469.18 156.91 470.16C159.14 476.16 159.66 486.23 158.38 495.25C157.15 503.9 154.27 511.53 149.63 513.49C140.17 517.49 142.71 521.49 144.9 524.78C146.195 527.138 147.276 529.608 148.13 532.16C149.86 536.87 151.45 541.89 151.45 541.89C152.104 541.637 152.772 541.42 153.45 541.24C154.841 540.783 156.314 540.629 157.77 540.79C158.173 540.821 158.555 540.979 158.863 541.242C159.17 541.504 159.386 541.857 159.48 542.25C159.75 543.45 161.82 544.94 164.33 546.35C167.589 548.124 170.952 549.7 174.4 551.07Z" fill="#0B1D40"/>
<path opacity="0.1" d="M96.17 513.53C96.17 513.53 133.31 520.99 138.95 526.09L96.17 513.53Z" fill="black"/>
<path opacity="0.1" d="M89.02 569.07C88.48 569.62 75.02 599.83 76.1 599.83C77.18 599.83 88.66 581.83 88.66 581.83L89.02 569.07Z" fill="black"/>
<path opacity="0.1" d="M114.33 532.82C114.33 532.82 103.41 536.65 104.68 537.01C105.95 537.37 113.96 534.46 114.33 532.82Z" fill="black"/>
<path opacity="0.1" d="M103.41 578.52C105.23 582.34 111.05 593.81 112.33 591.99C113.61 590.17 103.41 578.52 103.41 578.52Z" fill="black"/>
<path d="M240.456 272.789L238.896 275.019C238.896 275.019 226.456 266.309 221.366 261.909C216.276 257.509 204.256 277.559 194.786 283.019C185.316 288.479 169.306 289.949 169.306 289.949C169.306 289.949 156.926 277.559 157.306 273.949C157.686 270.339 151.486 269.219 151.116 266.659C150.746 264.099 148.566 256.829 145.656 253.189C144.116 251.269 143.896 245.259 144.036 240.029L145.656 239.729C147.21 236.905 149.175 234.327 151.486 232.079C154.766 229.159 159.856 211.329 159.856 211.329C162.766 201.499 168.586 204.399 168.586 204.399C168.586 219.329 183.886 224.799 191.526 230.989C199.166 237.179 211.186 253.189 220.656 256.469C228.476 259.159 237.566 269.369 240.456 272.789Z" fill="#0B1D40"/>
<path opacity="0.1" d="M240.66 276.51C240.66 276.51 229.93 282.33 221.55 282.88C220.453 282.931 219.354 282.868 218.27 282.69C218.27 282.69 227.52 275.78 236.11 274.37L240.66 276.51Z" fill="black"/>
<path opacity="0.1" d="M262.51 306.18C262.51 306.18 248.98 300.91 244.51 308.84C244.66 305.2 244.72 302.18 244.72 302.18L259.47 299.26C259.47 299.26 260.89 301.89 262.55 305.43C262.51 305.9 262.51 306.18 262.51 306.18Z" fill="black"/>
<path d="M219 282.959C219 282.959 235.21 273.229 243 274.049C251.17 274.899 267 275.499 267 275.499C267 275.499 261.54 287.879 262.27 290.429C263 292.979 263.18 305.359 263.18 305.359C263.18 305.359 246.8 298.989 244.07 310.819C244.07 310.819 235.15 297.529 229.14 293.519C225.152 290.638 221.717 287.061 219 282.959Z" fill="#DCDCDC"/>
<path opacity="0.1" d="M309.84 293.99C305.11 293.99 288.36 283.42 284.72 276.51C281.08 269.6 275.98 277.23 271.25 279.79C268.25 281.43 256.36 278 249.95 275.51C253.2 273.3 260.4 267.08 262.51 265.59C265.05 263.76 267.61 234.27 267.61 234.27C276.71 229.54 286.54 272.5 286.54 272.5C286.54 272.5 303.66 277.6 305.11 281.24C305.39 281.96 306.68 283.24 308.62 284.79C310.62 289.83 311.72 293.99 309.84 293.99Z" fill="black"/>
<path d="M309.84 291.8C305.11 291.8 288.36 281.24 284.72 274.33C281.08 267.42 275.98 275.05 271.25 277.6C268.25 279.24 258.72 276.07 252.31 273.6C255.56 271.4 260.4 264.92 262.51 263.42C265.05 261.6 267.61 232.11 267.61 232.11C276.71 227.38 286.54 270.34 286.54 270.34C286.54 270.34 303.66 275.44 305.11 279.08C305.39 279.8 306.68 281.08 308.62 282.63C310.62 287.64 311.72 291.8 309.84 291.8Z" fill="#0B1D40"/>
<path d="M358.8 619.002L517.11 487.002C518.69 485.668 520.703 484.956 522.77 485.002L581.83 486.552C581.83 486.552 585.92 489.552 579.92 496.112L430.58 618.662C428.966 619.981 426.963 620.733 424.88 620.802L360.3 622.942C359.836 622.957 359.379 622.826 358.993 622.569C358.607 622.312 358.311 621.94 358.146 621.507C357.981 621.073 357.955 620.599 358.072 620.15C358.19 619.701 358.444 619.3 358.8 619.002Z" fill="#827AFF"/>
<path d="M445 597.104C445 597.104 479.58 646.624 518 600.564C556.42 554.504 545.31 530.304 533.66 529.024C522.01 527.744 456.46 578.174 445 597.104Z" fill="#F3BE97"/>
</svg>
